<svg
            height="20rem"
            viewBox="0 0 200 200"
            xmlns="http://www.w3.org/2000/svg"
          >
            <path
              fill="#8A3FFC"
              d="M33.4,-47.4C44.3,-38,54.9,-29.7,62.7,-17.6C70.6,-5.4,75.7,10.4,69.8,21C64,31.5,47.3,36.9,33.9,46.8C20.4,56.8,10.2,71.4,-2.7,75.2C-15.7,79,-31.3,71.8,-41.1,60.6C-50.8,49.5,-54.7,34.2,-60.5,19C-66.3,3.8,-74,-11.4,-71.4,-24.4C-68.8,-37.4,-55.9,-48.3,-42.3,-56.7C-28.6,-65.2,-14.3,-71.2,-1.5,-69.1C11.2,-67,22.5,-56.7,33.4,-47.4Z"
              transform="translate(100 100)"
            />
          </svg>