<svg
            height="20rem"
            viewBox="0 0 200 200"
            xmlns="http://www.w3.org/2000/svg"
          >
            <path
              fill="#8A3FFC"
              d="M49.8,-65.1C62.4,-59.3,69,-41.9,67.4,-26.7C65.8,-11.4,56.1,1.8,51.6,17.2C47.2,32.5,48.2,50.1,40.4,55.7C32.7,61.4,16.4,55.3,3.6,50.4C-9.2,45.5,-18.4,41.8,-27.3,36.5C-36.2,31.1,-44.7,24.2,-51.6,14.1C-58.5,4,-63.9,-9.2,-61.7,-21.3C-59.5,-33.3,-49.7,-44.2,-38.2,-50.3C-26.6,-56.5,-13.3,-57.9,2.6,-61.6C18.6,-65.2,37.2,-70.9,49.8,-65.1Z"
              transform="translate(100 100)"
            />
          </svg>